<svg width="0" height="0" viewBox="0 0 112 46" fill="none" xmlns="http://www.w3.org/2000/svg">
<path d="M9.9465 3.4207C9.9465 3.4207 5.51158 4.86612 3.61484 5.66461L0 24.5333L6.20986 22.9738L2.21015 43.912C40.8951 35.6746 72.6996 51.8235 96.438 43.472C102.174 41.4546 105.23 36.799 106.802 28.8109L112 2.29631C65.1142 9.41586 44.5684 -6.64346 9.9465 3.4207Z" fill="#EB691B"/>
<path d="M23.9741 9.78102V13.2308C23.9741 13.4638 24.1625 13.6512 24.3931 13.6512H27.5711C27.8033 13.6512 27.9901 13.8403 27.9901 14.0717V17.8017C27.9901 18.0347 27.8017 18.2221 27.5711 18.2221H24.3931C24.1609 18.2221 23.9741 18.4112 23.9741 18.6426V25.4492C23.9741 27.8577 24.5441 29.2168 26.4149 29.2168C26.9426 29.2168 27.3957 29.1777 27.7725 29.1288C28.0242 29.0946 28.2483 29.2869 28.2499 29.5411L28.284 33.4471C28.2856 33.6345 28.1671 33.7991 27.9884 33.8545C27.1407 34.1185 25.8108 34.2798 24.2583 34.2798C22.2641 34.2798 20.5964 33.5856 19.6204 32.5655C18.482 31.3808 17.912 29.4612 17.912 26.6437V18.6426C17.912 18.4095 17.7236 18.2221 17.493 18.2221H14.7779C14.5456 18.2221 14.3589 18.0331 14.3589 17.8017V14.0717C14.3589 13.8386 14.5473 13.6512 14.7779 13.6512H17.493C17.7253 13.6512 17.912 13.4622 17.912 13.2308V9.78102C17.912 9.548 18.1004 9.3606 18.331 9.3606H23.5551C23.7874 9.3606 23.9741 9.54963 23.9741 9.78102Z" fill="white"/>
<path d="M82.5178 28.8502C82.5178 28.5569 82.8182 28.3614 83.0845 28.4852C84.4031 29.0947 86.636 29.6992 88.2096 29.6992C90.0804 29.6992 90.855 29.0458 90.855 28.0257C90.855 27.0056 90.2444 26.5151 87.9254 25.7394C83.8169 24.351 82.2287 22.1055 82.2693 19.7377C82.2693 16.0223 85.4424 13.2048 90.3662 13.2048C92.5455 13.2048 94.5104 13.6741 95.7527 14.2396C95.894 14.3048 95.9817 14.4482 95.9801 14.6046L95.9768 18.0251C95.9768 18.3021 95.7024 18.4993 95.4425 18.4031C94.249 17.9615 92.0177 17.4938 90.5692 17.4938C89.1206 17.4938 88.2096 18.1066 88.2096 19.1267C88.2096 20.0653 88.9826 20.5558 91.425 21.4129C95.2087 22.7198 96.7953 24.6395 96.8359 27.5792C96.8359 31.2946 93.9063 34.0306 88.2096 34.0306C85.7283 34.0306 84.179 33.5108 82.7354 32.7563C82.6038 32.6879 82.521 32.5493 82.521 32.3994L82.5178 28.8535V28.8502Z" fill="white"/>
<path d="M40.1663 29.4907C38.2355 29.3115 36.571 28.0861 36.0188 26.3212C35.9246 26.0214 36.1601 25.7167 36.4735 25.7167H48.7974C49.0589 25.7167 49.2749 25.4999 49.2684 25.236C49.1206 18.4994 45.8322 14.3586 39.8366 14.3586C34.986 14.3586 30.3984 18.3315 30.3984 24.193C30.3984 30.0546 35.3157 34.0274 40.1988 34.0274C45.0819 34.0274 47.8296 31.2067 48.9273 28.7004C48.9387 28.676 48.9468 28.6515 48.9566 28.6254L49.067 28.2914C49.1693 27.985 48.942 27.6689 48.6204 27.6689H44.7458C44.6045 27.6689 44.4746 27.7357 44.3836 27.8449C43.406 29.0231 41.7707 29.6488 40.1663 29.4907ZM39.9357 18.5303C41.9997 18.5303 43.4742 19.9431 43.9094 21.457C43.9971 21.765 43.7779 22.0746 43.4596 22.0746H36.5693C36.2592 22.0746 36.0253 21.7764 36.1114 21.4782C36.6051 19.7851 37.9513 18.5319 39.9357 18.5319V18.5303Z" fill="white"/>
<path d="M57.0323 9.31016L52.1605 10.5291C51.7091 10.6594 51.5564 10.9104 51.5905 11.3716L52.344 20.4808L52.5941 24.9849C52.625 25.5047 52.8621 25.7035 53.3915 25.7035L56.8796 25.7149C57.4204 25.7149 57.5665 25.521 57.5795 24.9882L57.7273 20.4775L58.1528 10.12C58.1771 9.45193 57.6867 9.12276 57.0339 9.31016H57.0323Z" fill="white"/>
<path d="M70.7852 15.0918C76.0922 15.0918 80.5579 19.7035 80.5579 24.7355C80.5579 29.7676 76.0922 34.3793 70.7852 34.3793C65.4782 34.3793 60.98 29.8002 60.98 24.7355C60.98 19.6709 65.5107 15.0918 70.7852 15.0918ZM70.7527 29.5411C73.3412 29.5411 75.251 27.5286 75.251 24.7355C75.251 21.9425 73.3412 19.93 70.7527 19.93C68.1642 19.93 66.2869 21.9441 66.2869 24.7355C66.2869 27.527 68.1967 29.5737 70.7527 29.5411Z" fill="white"/>
<path d="M55.2475 31.2832C56.493 31.2832 57.5746 31.9856 58.1218 33.0171C58.497 32.4614 58.7162 31.79 58.7162 31.0681C58.7162 30.3462 58.5035 29.6961 58.1381 29.1453C57.5161 28.2066 56.4541 27.5874 55.2475 27.5874C54.0409 27.5874 52.9789 28.2066 52.3569 29.1453C51.9915 29.6961 51.7788 30.3577 51.7788 31.0681C51.7788 31.7786 51.998 32.4598 52.3732 33.0171C52.9204 31.9856 54.0019 31.2832 55.2475 31.2832Z" fill="white"/>
<path d="M55.2474 34.5503C56.4442 34.5503 57.4981 33.9425 58.1217 33.0185C57.5745 31.987 56.4929 31.2847 55.2474 31.2847C54.0018 31.2847 52.9203 31.987 52.373 33.0185C52.9966 33.9425 54.0522 34.5503 55.2474 34.5503Z" fill="#FCD991"/>
</svg>
