<svg width="234" height="235" viewBox="0 0 234 235" fill="none" xmlns="http://www.w3.org/2000/svg">
<g filter="url(#filter0_d_238_147)">
<path d="M227 4.67773H7V224.678H227V4.67773Z" fill="white"/>
<g style="mix-blend-mode:multiply">
<path d="M117 214.338C170.269 214.338 213.452 171.155 213.452 117.886C213.452 64.6165 170.269 21.4333 117 21.4333C63.731 21.4333 20.5479 64.6165 20.5479 117.886C20.5479 171.155 63.731 214.338 117 214.338Z" fill="#F9EA7A"/>
</g>
<g style="mix-blend-mode:multiply">
<path d="M117 206.106C165.723 206.106 205.22 166.609 205.22 117.886C205.22 69.1635 165.723 29.666 117 29.666C68.2777 29.666 28.7803 69.1635 28.7803 117.886C28.7803 166.609 68.2777 206.106 117 206.106Z" fill="#F9EA7A"/>
</g>
<path d="M117 182.125C152.479 182.125 181.24 153.363 181.24 117.885C181.24 82.4058 152.479 53.6445 117 53.6445C81.521 53.6445 52.7598 82.4058 52.7598 117.885C52.7598 153.363 81.521 182.125 117 182.125Z" fill="white"/>
<path d="M61.3262 118.205C61.3262 149.133 86.392 174.199 117.32 174.199V118.205H61.3262Z" fill="#F5D28A"/>
<g style="mix-blend-mode:multiply">
<path d="M117.319 174.199C148.247 174.199 173.313 149.133 173.313 118.205H117.319V174.199Z" fill="#F9EA7A"/>
</g>
<path d="M117 62.5312V118.525H172.994C172.994 87.5971 147.928 62.5312 117 62.5312Z" fill="#E36819"/>
<g style="mix-blend-mode:multiply">
<path d="M117.32 62.2109C86.392 62.2109 61.3262 87.2767 61.3262 118.204H117.32V62.2109Z" fill="#F9EA7A"/>
</g>
<path d="M152.051 162.127H82.5879V224.678H152.051V162.127Z" fill="#EEECEB"/>
</g>
<defs>
<filter id="filter0_d_238_147" x="0" y="0.677734" width="234" height="234" filterUnits="userSpaceOnUse" color-interpolation-filters="sRGB">
<feFlood flood-opacity="0" result="BackgroundImageFix"/>
<feColorMatrix in="SourceAlpha" type="matrix" values="0 0 0 0 0 0 0 0 0 0 0 0 0 0 0 0 0 0 127 0" result="hardAlpha"/>
<feOffset dy="3"/>
<feGaussianBlur stdDeviation="3.5"/>
<feComposite in2="hardAlpha" operator="out"/>
<feColorMatrix type="matrix" values="0 0 0 0 0 0 0 0 0 0 0 0 0 0 0 0 0 0 0.1 0"/>
<feBlend mode="normal" in2="BackgroundImageFix" result="effect1_dropShadow_238_147"/>
<feBlend mode="normal" in="SourceGraphic" in2="effect1_dropShadow_238_147" result="shape"/>
</filter>
</defs>
</svg>
