<svg width="234" height="235" viewBox="0 0 234 235" fill="none" xmlns="http://www.w3.org/2000/svg">
<g filter="url(#filter0_d_238_160)">
<path d="M227 4.67773H7V224.678H227V4.67773Z" fill="white"/>
<path d="M214.46 82.4512H21.6548V191.188H214.46V82.4512Z" fill="#EEECEB"/>
<path d="M112.926 96.3828H42.7109V177.258H112.926V96.3828Z" fill="white"/>
<path d="M191.424 119.248H128.986V177.257H191.424V119.248Z" fill="#F9EA7A"/>
<path d="M214.46 65.8086H21.6548V82.4505H214.46V65.8086Z" fill="#E36819"/>
<path d="M189.799 76.7094C191.225 76.7094 192.382 75.5529 192.382 74.1262C192.382 72.6995 191.225 71.543 189.799 71.543C188.372 71.543 187.215 72.6995 187.215 74.1262C187.215 75.5529 188.372 76.7094 189.799 76.7094Z" fill="#F9EA7A"/>
<path d="M198.073 76.7094C199.5 76.7094 200.657 75.5529 200.657 74.1262C200.657 72.6995 199.5 71.543 198.073 71.543C196.647 71.543 195.49 72.6995 195.49 74.1262C195.49 75.5529 196.647 76.7094 198.073 76.7094Z" fill="#EEECEB"/>
<path d="M206.348 76.7094C207.775 76.7094 208.932 75.5529 208.932 74.1262C208.932 72.6995 207.775 71.543 206.348 71.543C204.922 71.543 203.765 72.6995 203.765 74.1262C203.765 75.5529 204.922 76.7094 206.348 76.7094Z" fill="white"/>
<path d="M21.6553 59.0605L214.46 59.0605V42.4186L21.6553 42.4186V59.0605Z" fill="#F5D28A"/>
<path d="M46.3161 53.3188C47.7428 53.3188 48.8994 52.1622 48.8994 50.7356C48.8994 49.3089 47.7428 48.1523 46.3161 48.1523C44.8895 48.1523 43.7329 49.3089 43.7329 50.7356C43.7329 52.1622 44.8895 53.3188 46.3161 53.3188Z" fill="#F9EA7A"/>
<path d="M38.0486 53.3188C39.4752 53.3188 40.6318 52.1622 40.6318 50.7356C40.6318 49.3089 39.4752 48.1523 38.0486 48.1523C36.6219 48.1523 35.4653 49.3089 35.4653 50.7356C35.4653 52.1622 36.6219 53.3188 38.0486 53.3188Z" fill="#EEECEB"/>
<path d="M29.7737 53.3188C31.2003 53.3188 32.3569 52.1622 32.3569 50.7356C32.3569 49.3089 31.2003 48.1523 29.7737 48.1523C28.347 48.1523 27.1904 49.3089 27.1904 50.7356C27.1904 52.1622 28.347 53.3188 29.7737 53.3188Z" fill="white"/>
</g>
<defs>
<filter id="filter0_d_238_160" x="0" y="0.677734" width="234" height="234" filterUnits="userSpaceOnUse" color-interpolation-filters="sRGB">
<feFlood flood-opacity="0" result="BackgroundImageFix"/>
<feColorMatrix in="SourceAlpha" type="matrix" values="0 0 0 0 0 0 0 0 0 0 0 0 0 0 0 0 0 0 127 0" result="hardAlpha"/>
<feOffset dy="3"/>
<feGaussianBlur stdDeviation="3.5"/>
<feComposite in2="hardAlpha" operator="out"/>
<feColorMatrix type="matrix" values="0 0 0 0 0 0 0 0 0 0 0 0 0 0 0 0 0 0 0.1 0"/>
<feBlend mode="normal" in2="BackgroundImageFix" result="effect1_dropShadow_238_160"/>
<feBlend mode="normal" in="SourceGraphic" in2="effect1_dropShadow_238_160" result="shape"/>
</filter>
</defs>
</svg>
