<svg width="234" height="235" viewBox="0 0 234 235" fill="none" xmlns="http://www.w3.org/2000/svg">
<g filter="url(#filter0_d_238_233)">
<path d="M227 4.24219H7V224.242H227V4.24219Z" fill="white"/>
<mask id="mask0_238_233" style="mask-type:luminance" maskUnits="userSpaceOnUse" x="7" y="4" width="220" height="221">
<path d="M227 4.24219H7V224.242H227V4.24219Z" fill="white"/>
</mask>
<g mask="url(#mask0_238_233)">
<g style="mix-blend-mode:multiply">
<path d="M117 257.581L29.2695 200.956L117 144.338L204.73 200.956L117 257.581Z" fill="#E36819"/>
</g>
<g style="mix-blend-mode:multiply">
<path d="M117 216.187L29.2695 159.561L117 102.943L204.73 159.561L117 216.187Z" fill="#F5D28A"/>
</g>
<path d="M117 174.792L29.2695 118.167L117 61.5488L204.73 118.167L117 174.792Z" fill="#EEECEB"/>
<g style="mix-blend-mode:multiply">
<path d="M117 133.388L29.2695 76.7704L117 20.1523L204.73 76.7704L117 133.388Z" fill="#F9EA7A"/>
</g>
</g>
</g>
<defs>
<filter id="filter0_d_238_233" x="0" y="0.242188" width="234" height="234" filterUnits="userSpaceOnUse" color-interpolation-filters="sRGB">
<feFlood flood-opacity="0" result="BackgroundImageFix"/>
<feColorMatrix in="SourceAlpha" type="matrix" values="0 0 0 0 0 0 0 0 0 0 0 0 0 0 0 0 0 0 127 0" result="hardAlpha"/>
<feOffset dy="3"/>
<feGaussianBlur stdDeviation="3.5"/>
<feComposite in2="hardAlpha" operator="out"/>
<feColorMatrix type="matrix" values="0 0 0 0 0 0 0 0 0 0 0 0 0 0 0 0 0 0 0.1 0"/>
<feBlend mode="normal" in2="BackgroundImageFix" result="effect1_dropShadow_238_233"/>
<feBlend mode="normal" in="SourceGraphic" in2="effect1_dropShadow_238_233" result="shape"/>
</filter>
</defs>
</svg>
